<svg height="389pt" viewBox="0 0 389.12181 389" width="389pt" xmlns="http://www.w3.org/2000/svg"><path d="m341.335938 68.335938v300.367187c0 7.539063-6.113282 13.652344-13.652344 13.652344h-252.589844c-7.539062 0-13.652344-6.113281-13.652344-13.652344v-348.160156c0-7.539063 6.113282-13.652344 13.652344-13.652344h204.800781" fill="#fff"/><path d="m334.507812 68.335938v300.367187c-.007812 3.765625-3.058593 6.816406-6.824218 6.824219h-252.589844c-3.765625-.007813-6.820312-3.058594-6.824219-6.824219v-348.160156c.003907-3.765625 3.058594-6.820313 6.824219-6.828125h204.800781c3.769531 0 6.824219-3.054688 6.824219-6.824219 0-3.773437-3.054688-6.828125-6.824219-6.828125h-204.800781c-11.3125.0039062-20.472656 9.164062-20.480469 20.480469v348.160156c.007813 11.3125 9.167969 20.472656 20.480469 20.476563h252.589844c11.3125-.003907 20.472656-9.164063 20.476562-20.476563v-300.367187c0-3.773438-3.054687-6.828126-6.824218-6.828126-3.773438 0-6.828126 3.054688-6.828126 6.828126zm0 0" fill="#54596e"/><path d="m341.335938 68.328125h-61.441407v-61.4375zm0 0" fill="#d8d8d8"/><g fill="#54596e"><path d="m341.335938 68.328125v-6.824219h-54.613282v-38.132812l49.785156 49.785156 4.828126-4.828125v-6.824219 6.824219l4.824218-4.828125-61.4375-61.4375c-1.953125-1.957031-4.890625-2.539062-7.441406-1.480469-2.550781 1.054688-4.214844 3.546875-4.214844 6.308594v61.4375c0 1.824219.710938 3.535156 2 4.828125 1.289063 1.289062 3.003906 1.996094 4.828125 1.996094h61.4375c2.761719 0 5.25-1.664063 6.308594-4.210938 1.054687-2.550781.472656-5.488281-1.480469-7.441406zm0 0"/><path d="m164.6875 244.058594c8.976562 9.753906 23.648438 15.355468 40.113281 15.414062 16.304688-.054687 30.84375-5.550781 39.847657-15.125 2.566406-2.761718 2.40625-7.082031-.355469-9.644531-2.765625-2.566406-7.082031-2.40625-9.648438.355469-5.433593 5.972656-16.707031 10.820312-29.84375 10.765625-13.265625.058593-24.632812-4.898438-30.003906-10.945313-2.535156-2.789062-6.855469-3-9.644531-.460937-2.792969 2.53125-3 6.851562-.464844 9.640625zm0 0"/><path d="m157.015625 170.730469c0 7.539062-6.113281 13.652343-13.652344 13.652343-7.542969 0-13.65625-6.113281-13.65625-13.652343 0-7.542969 6.113281-13.65625 13.65625-13.65625 7.539063 0 13.652344 6.113281 13.652344 13.65625zm0 0"/><path d="m279.894531 170.730469c0 7.539062-6.113281 13.652343-13.652343 13.652343-7.539063 0-13.652344-6.113281-13.652344-13.652343 0-7.542969 6.113281-13.65625 13.652344-13.65625 7.539062 0 13.652343 6.113281 13.652343 13.65625zm0 0"/></g><path d="m279.894531 211.6875c0 7.542969-6.113281 13.65625-13.652343 13.65625-7.539063 0-13.652344-6.113281-13.652344-13.65625 0-7.539062 6.113281-13.652344 13.652344-13.652344 7.539062 0 13.652343 6.113282 13.652343 13.652344zm0 0" fill="#ff927d"/><path d="m157.015625 211.6875c0 7.542969-6.113281 13.65625-13.652344 13.65625-7.542969 0-13.65625-6.113281-13.65625-13.65625 0-7.539062 6.113281-13.652344 13.65625-13.652344 7.539063 0 13.652344 6.113282 13.652344 13.652344zm0 0" fill="#ff927d"/><path d="m382.296875 375.527344h-116.054687c-3.769532 0-6.828126 3.054687-6.828126 6.828125 0 3.769531 3.058594 6.828125 6.828126 6.828125h116.054687c3.769531 0 6.824219-3.058594 6.824219-6.828125s-3.054688-6.828125-6.824219-6.828125" fill="#54596e"/><path d="m207.640625 129.769531h-200.8125v-95.574219h207.640625c4.820312 0 7.839844 5.207032 5.445312 9.386719l-13.617187 34.613281c-.960937 2.433594-.960937 5.140626 0 7.574219l13.617187 34.613281c2.394532 4.179688-7.453124 9.386719-12.273437 9.386719zm0 0" fill="#9af43b"/><path d="m207.640625 129.769531v-6.828125h-193.988281v-81.917968h200.816406v-.585938l-.410156.394531.410156.1875v-.582031l-.410156.394531.371094-.359375h-.503907l.132813.359375.371094-.359375h-.503907.542969l-.484375-.273437-.058594.273437h.542969l-.484375-.273437-.421875.882812-13.621094 34.613281c-.792968 2.015626-1.191406 4.152344-1.191406 6.285157 0 2.136719.398438 4.273437 1.195312 6.292969l13.617188 34.605468.433594.898438 3.570312-2.046875h-4.109375c-.011719.699219.222657 1.527343.539063 2.046875l3.570312-2.046875h-4.109375 3.476563l-3.152344-1.535157c-.117188.242188-.324219.78125-.324219 1.535157h3.476563l-3.152344-1.535157 1.476562.71875-1.359374-.921874-.117188.203124 1.476562.71875-1.359374-.921874-.003907.003906c-.148437.246094-1.542969 1.328125-3.03125 1.964844-1.445312.707031-3.1875 1.035156-3.21875.980468v13.652344c2.15625-.015625 4.019531-.445312 5.902344-1.042969 2.804687-.929687 5.542969-2.269531 8.03125-4.160156 1.242187-.960937 2.433594-2.058594 3.492187-3.550781 1.03125-1.46875 2.027344-3.5 2.042969-6.105469.011719-1.613281-.457031-3.347656-1.273437-4.746094l-5.921875 3.398438 6.351562-2.5-13.617187-34.613281-.253906-1.292969.246093-1.277344 13.621094-34.621094-6.351563-2.5 5.929688 3.382813c1.160156-2.027344 1.738281-4.300782 1.734375-6.492188-.007813-3.46875-1.363281-6.679687-3.671875-9.09375-2.285156-2.414062-5.714844-4.027344-9.441406-4.011718h-207.636719c-1.796875 0-3.554687.726562-4.828125 2-1.269531 1.269531-2 3.03125-2 4.828124v95.574219c0 1.820313.710938 3.535157 2.003906 4.824219 1.289063 1.292969 3 2 4.824219 2h200.8125zm0 0" fill="#54596e"/><path d="m68.269531 47.847656h-34.132812c-1.796875 0-3.558594.726563-4.828125 2-1.273438 1.269532-2 3.03125-2 4.828125v54.613281c0 1.824219.710937 3.535157 2 4.828126 1.289062 1.289062 3.003906 1.996093 4.828125 1.996093h34.132812c3.765625.003907 6.824219-3.054687 6.824219-6.824219 0-3.769531-3.058594-6.824218-6.824219-6.824218l-27.308593-.003906v-40.960938l27.308593.003906c3.765625 0 6.824219-3.058594 6.824219-6.828125s-3.058594-6.824219-6.824219-6.828125zm0 0" fill="#54596e"/><path d="m122.882812 47.847656h-34.132812c-1.796875 0-3.558594.726563-4.828125 2-1.273437 1.269532-2 3.03125-2 4.828125v27.304688c0 1.824219.710937 3.539062 2 4.828125 1.289063 1.289062 3.003906 2 4.828125 2h27.304688v13.652344l-27.304688.003906c-3.773438 0-6.828125 3.054687-6.828125 6.824218 0 3.773438 3.054687 6.828126 6.828125 6.828126h34.132812c1.820313 0 3.535157-.710938 4.824219-2 1.292969-1.289063 2-3.003907 2-4.828126v-27.308593c0-1.796875-.726562-3.554688-2-4.828125-1.269531-1.269532-3.027343-1.996094-4.824219-1.996094h-27.308593v-13.65625h27.308593c3.765626.003906 6.824219-3.054688 6.824219-6.824219s-3.058593-6.824219-6.824219-6.828125zm0 0" fill="#54596e"/><path d="m6.828125 129.769531h54.613281v34.132813zm0 0" fill="#9af43b"/><path d="m6.828125 129.769531v6.824219h47.785156v14.992188l-44.167969-27.609376-3.617187 5.792969v6.824219-6.824219l-3.617187 5.789063 54.613281 34.132812c2.105469 1.316406 4.757812 1.386719 6.925781.179688 2.171875-1.203125 3.515625-3.484375 3.515625-5.96875v-34.132813c0-1.800781-.726563-3.558593-1.996094-4.828125-1.273437-1.269531-3.03125-2-4.828125-2h-54.613281c-3.050781 0-5.71875 2.011719-6.5625 4.941406-.839844 2.9375.355469 6.054688 2.945313 7.671876zm0 0" fill="#54596e"/><path d="m136.96875 57.074219 20.480469 54.613281c.996093 2.664062 3.546875 4.429688 6.390625 4.429688s5.394531-1.769532 6.390625-4.429688l20.480469-54.613281c1.324218-3.53125-.464844-7.464844-3.996094-8.789063-3.53125-1.324218-7.464844.464844-8.785156 3.996094l-14.089844 37.566406-14.089844-37.570312c-1.324219-3.53125-5.257812-5.316406-8.789062-3.992188-3.527344 1.324219-5.316407 5.257813-3.992188 8.789063zm0 0" fill="#54596e"/></svg>