<?xml version="1.0"?>
<svg xmlns="http://www.w3.org/2000/svg" xmlns:xlink="http://www.w3.org/1999/xlink" xmlns:svgjs="http://svgjs.com/svgjs" version="1.1" width="512" height="512" x="0" y="0" viewBox="0 0 512 512" style="enable-background:new 0 0 512 512" xml:space="preserve" class=""><g>
<g xmlns="http://www.w3.org/2000/svg">
	<g>
		<g>
			<path d="M501.333,448H64V10.667C64,4.771,59.229,0,53.333,0c-5.896,0-10.667,4.771-10.667,10.667V448h-32     C4.771,448,0,452.771,0,458.667s4.771,10.667,10.667,10.667h32v32c0,5.896,4.771,10.667,10.667,10.667     C59.229,512,64,507.229,64,501.333v-32h437.333c5.896,0,10.667-4.771,10.667-10.667S507.229,448,501.333,448z" fill="#43bb8d" data-original="#000000" style="" class=""/>
			<path d="M117.333,362.667c2.729,0,5.458-1.042,7.542-3.125l120.458-120.458l56.458,56.458c4.167,4.167,10.917,4.167,15.083,0     l152.458-152.458v38.25c0,5.896,4.771,10.667,10.667,10.667c5.896,0,10.667-4.771,10.667-10.667v-64     c0-5.896-4.771-10.667-10.667-10.667h-64c-5.896,0-10.667,4.771-10.667,10.667c0,5.896,4.771,10.667,10.667,10.667h38.25     L309.333,272.917l-56.458-56.458c-4.167-4.167-10.917-4.167-15.083,0l-128,128c-4.167,4.167-4.167,10.917,0,15.083     C111.875,361.625,114.604,362.667,117.333,362.667z" fill="#43bb8d" data-original="#000000" style="" class=""/>
		</g>
	</g>
</g>
<g xmlns="http://www.w3.org/2000/svg">
</g>
<g xmlns="http://www.w3.org/2000/svg">
</g>
<g xmlns="http://www.w3.org/2000/svg">
</g>
<g xmlns="http://www.w3.org/2000/svg">
</g>
<g xmlns="http://www.w3.org/2000/svg">
</g>
<g xmlns="http://www.w3.org/2000/svg">
</g>
<g xmlns="http://www.w3.org/2000/svg">
</g>
<g xmlns="http://www.w3.org/2000/svg">
</g>
<g xmlns="http://www.w3.org/2000/svg">
</g>
<g xmlns="http://www.w3.org/2000/svg">
</g>
<g xmlns="http://www.w3.org/2000/svg">
</g>
<g xmlns="http://www.w3.org/2000/svg">
</g>
<g xmlns="http://www.w3.org/2000/svg">
</g>
<g xmlns="http://www.w3.org/2000/svg">
</g>
<g xmlns="http://www.w3.org/2000/svg">
</g>
</g></svg>
