<?xml version="1.0"?>
<svg xmlns="http://www.w3.org/2000/svg" xmlns:xlink="http://www.w3.org/1999/xlink" xmlns:svgjs="http://svgjs.com/svgjs" version="1.1" width="512" height="512" x="0" y="0" viewBox="0 0 512 512" style="enable-background:new 0 0 512 512" xml:space="preserve" class=""><g>
<path xmlns="http://www.w3.org/2000/svg" style="" d="M105,210H45c-8.291,0-15-6.709-15-15v-60c0-24.814,20.186-45,45-45h30c8.291,0,15,6.709,15,15v90  C120,203.291,113.291,210,105,210z" fill="#57555c" data-original="#57555c" class=""/>
<path xmlns="http://www.w3.org/2000/svg" style="" d="M482,195c0,8.291-6.709,15-15,15h-60c-8.291,0-15-6.709-15-15l-30-90c0-8.291,6.709-15,15-15h60  c24.814,0,45,20.186,45,45V195z" fill="#3c3a41" data-original="#3c3a41" class=""/>
<path xmlns="http://www.w3.org/2000/svg" style="" d="M422,120v75c0,8.399-6.599,15-15,15H105c-8.401,0-15-6.601-15-15V15c0-8.401,6.599-15,15-15h197  l30,90L422,120z" fill="#e5e5e5" data-original="#e5e5e5" class=""/>
<path xmlns="http://www.w3.org/2000/svg" style="" d="M407,210H256V0h46l30,90l90,30v75C422,203.399,415.401,210,407,210z" fill="#d9d9d9" data-original="#d9d9d9" class=""/>
<path xmlns="http://www.w3.org/2000/svg" style="" d="M467,180H45c-24.901,0-45,20.099-45,45v182c0,24.899,20.099,45,45,45h422c24.901,0,45-20.101,45-45  V225C512,200.099,491.901,180,467,180z" fill="#4acf9c" data-original="#1ba9ef" class=""/>
<path xmlns="http://www.w3.org/2000/svg" style="" d="M302,105c0,8.399,6.599,15,15,15h105L302,0V105z" fill="#ff7043" data-original="#fe9923" class=""/>
<path xmlns="http://www.w3.org/2000/svg" style="" d="M512,225v182c0,24.899-20.099,45-45,45H256V180h211C491.901,180,512,200.099,512,225z" fill="#43bb8d" data-original="#1689fc" class=""/>
<path xmlns="http://www.w3.org/2000/svg" style="" d="M105,270H75c-8.291,0-15-6.709-15-15s6.709-15,15-15h30c8.291,0,15,6.709,15,15  C120,263.291,113.291,270,105,270z" fill="#e1e4fb" data-original="#e1e4fb"/>
<path xmlns="http://www.w3.org/2000/svg" style="" d="M422,319.999V497c0,8.399-6.599,15-15,15H105c-8.401,0-15-6.601-15-15V319.999H422z" fill="#e5e5e5" data-original="#e5e5e5" class=""/>
<path xmlns="http://www.w3.org/2000/svg" style="" d="M422,319.999V497c0,8.399-6.599,15-15,15H256V319.999H422z" fill="#d9d9d9" data-original="#d9d9d9" class=""/>
<g xmlns="http://www.w3.org/2000/svg">
	<path style="" d="M362,377c0,8.399-6.599,15-15,15H165c-8.401,0-15-6.601-15-15c0-8.401,6.599-15,15-15h182   C355.401,362,362,368.599,362,377z" fill="#aeadb3" data-original="#aeadb3" class=""/>
	<path style="" d="M362,437c0,8.399-6.599,15-15,15H165c-8.401,0-15-6.601-15-15c0-8.401,6.599-15,15-15h182   C355.401,422,362,428.599,362,437z" fill="#aeadb3" data-original="#aeadb3" class=""/>
</g>
<g xmlns="http://www.w3.org/2000/svg">
	<path style="" d="M362,437c0,8.399-6.599,15-15,15h-91v-30h91C355.401,422,362,428.599,362,437z" fill="#8b8892" data-original="#8b8892" class=""/>
	<path style="" d="M362,377c0,8.399-6.599,15-15,15h-91v-30h91C355.401,362,362,368.599,362,377z" fill="#8b8892" data-original="#8b8892" class=""/>
</g>
<path xmlns="http://www.w3.org/2000/svg" style="" d="M452,317c0,8.399-6.599,15-15,15H75c-8.401,0-15-6.601-15-15c0-8.401,6.599-15,15-15h362  C445.401,302,452,308.599,452,317z" fill="#57555c" data-original="#57555c" class=""/>
<path xmlns="http://www.w3.org/2000/svg" style="" d="M452,317c0,8.399-6.599,15-15,15H256v-30h181C445.401,302,452,308.599,452,317z" fill="#3c3a41" data-original="#3c3a41" class=""/>
<g xmlns="http://www.w3.org/2000/svg">
</g>
<g xmlns="http://www.w3.org/2000/svg">
</g>
<g xmlns="http://www.w3.org/2000/svg">
</g>
<g xmlns="http://www.w3.org/2000/svg">
</g>
<g xmlns="http://www.w3.org/2000/svg">
</g>
<g xmlns="http://www.w3.org/2000/svg">
</g>
<g xmlns="http://www.w3.org/2000/svg">
</g>
<g xmlns="http://www.w3.org/2000/svg">
</g>
<g xmlns="http://www.w3.org/2000/svg">
</g>
<g xmlns="http://www.w3.org/2000/svg">
</g>
<g xmlns="http://www.w3.org/2000/svg">
</g>
<g xmlns="http://www.w3.org/2000/svg">
</g>
<g xmlns="http://www.w3.org/2000/svg">
</g>
<g xmlns="http://www.w3.org/2000/svg">
</g>
<g xmlns="http://www.w3.org/2000/svg">
</g>
</g></svg>
