<?xml version="1.0"?>
<svg xmlns="http://www.w3.org/2000/svg" xmlns:xlink="http://www.w3.org/1999/xlink" xmlns:svgjs="http://svgjs.com/svgjs" version="1.1" width="512" height="512" x="0" y="0" viewBox="0 0 401.991 401.991" style="enable-background:new 0 0 512 512" xml:space="preserve"><g>
<path xmlns="http://www.w3.org/2000/svg" style="" d="M247.372,230.858c14.102-6.398,54.503-27.208,82.858-66.609  c34.127-47.419,37.184-102.831,37.297-105.167l2.868-59.08L200.997,235.376L90.53,81.886L66.15,48.011l0,0L31.596,0l2.87,59.082  c0.113,2.336,3.171,57.748,37.298,105.166c28.354,39.401,68.755,60.212,82.856,66.61l24.814,34.479l-38.372,53.319  c-3.408-4.977-7.69-9.374-12.73-13.001c-9.023-6.492-19.665-9.924-30.776-9.924c-17.088,0-33.266,8.304-43.277,22.214  c-17.145,23.821-11.822,57.072,11.864,74.121c9.022,6.493,19.664,9.925,30.776,9.925c17.087,0,33.265-8.304,43.275-22.213  l60.801-84.482l60.801,84.482c10.01,13.908,26.186,22.212,43.274,22.213h0.003c11.11,0,21.752-3.432,30.774-9.926  c11.497-8.274,19.055-20.559,21.28-34.589c2.217-13.975-1.128-28.015-9.417-39.531c-10.011-13.909-26.189-22.214-43.276-22.214  c-11.111,0-21.753,3.432-30.777,9.925c-5.039,3.626-9.32,8.023-12.728,13l-38.372-53.319L247.372,230.858z M96.92,366.991  c-3.729,0-7.302-1.152-10.331-3.332c-8.022-5.775-9.773-17.11-3.901-25.269c3.451-4.796,9.01-7.659,14.869-7.659  c3.729,0,7.303,1.152,10.332,3.333c3.863,2.78,6.404,6.922,7.156,11.663c0.761,4.798-0.396,9.63-3.258,13.605  C108.336,364.129,102.779,366.991,96.92,366.991z M286.948,345.728c0.752-4.741,3.293-8.883,7.155-11.662  c3.03-2.182,6.604-3.334,10.333-3.334c5.858,0,11.417,2.863,14.869,7.66c2.86,3.975,4.018,8.805,3.257,13.602  c-0.753,4.742-3.295,8.885-7.158,11.665c-3.029,2.181-6.602,3.333-10.329,3.333h-0.001c-5.859,0-11.417-2.863-14.868-7.658  C287.344,355.357,286.187,350.525,286.948,345.728z" fill="#777777" data-original="#231f20"/>
<g xmlns="http://www.w3.org/2000/svg">
</g>
<g xmlns="http://www.w3.org/2000/svg">
</g>
<g xmlns="http://www.w3.org/2000/svg">
</g>
<g xmlns="http://www.w3.org/2000/svg">
</g>
<g xmlns="http://www.w3.org/2000/svg">
</g>
<g xmlns="http://www.w3.org/2000/svg">
</g>
<g xmlns="http://www.w3.org/2000/svg">
</g>
<g xmlns="http://www.w3.org/2000/svg">
</g>
<g xmlns="http://www.w3.org/2000/svg">
</g>
<g xmlns="http://www.w3.org/2000/svg">
</g>
<g xmlns="http://www.w3.org/2000/svg">
</g>
<g xmlns="http://www.w3.org/2000/svg">
</g>
<g xmlns="http://www.w3.org/2000/svg">
</g>
<g xmlns="http://www.w3.org/2000/svg">
</g>
<g xmlns="http://www.w3.org/2000/svg">
</g>
</g></svg>
