<?xml version="1.0"?>
<svg xmlns="http://www.w3.org/2000/svg" xmlns:xlink="http://www.w3.org/1999/xlink" xmlns:svgjs="http://svgjs.com/svgjs" version="1.1" width="512" height="512" x="0" y="0" viewBox="0 0 192 192" style="enable-background:new 0 0 512 512" xml:space="preserve"><g><path xmlns="http://www.w3.org/2000/svg" d="m16 184a8 8 0 0 0 8 8h144a8 8 0 0 0 8-8v-16h-160z" fill="#777777" data-original="#000000" style=""/><path xmlns="http://www.w3.org/2000/svg" d="m168 0h-144a8 8 0 0 0 -8 8v152h160v-152a8 8 0 0 0 -8-8zm-88 16a8 8 0 1 1 -8 8 8 8 0 0 1 8-8zm-40 8a8 8 0 1 1 8 8 8 8 0 0 1 -8-8zm56 120a48 48 0 1 1 48-48 48.054 48.054 0 0 1 -48 48zm56-112h-32v-16h32z" fill="#777777" data-original="#000000" style=""/><path xmlns="http://www.w3.org/2000/svg" d="m121.6 76.821a32 32 0 1 0 0 38.358 23.96 23.96 0 0 1 0-38.358z" fill="#777777" data-original="#000000" style=""/></g></svg>
