<svg id="Capa_1" enable-background="new 0 0 512 512" height="512" viewBox="0 0 512 512" width="512" xmlns="http://www.w3.org/2000/svg"><g><g><g><path d="m180.508 422.307h105v30h-105z"/><path d="m120.508 422.307h30v30h-30z"/></g><path d="m450.492 0h-388.984v512h275.716l113.269-125.154v-386.846m-29.944 30.234v335.823h-105.041v116.254l-224 .064v-452.141zm-18.803 365.823-56.239 62.264v-62.264z"/></g><g><path d="m380.337 179.637c0-52.289-42.541-94.83-94.83-94.83h-15v112.553h109.268c.001 0 .562-16.796.562-17.723zm-79.829-12.277v-50.802c24.623 5.855 43.852 25.795 48.664 50.802z"/><path d="m299.751 316.557c19.834-19.822 30.757-46.191 30.757-74.25v-15h-90v-90h-15c-28.06 0-54.429 10.923-74.244 30.75-19.833 19.822-30.756 46.191-30.756 74.25 0 57.897 47.103 105 105 105 28.058 0 54.428-10.923 74.243-30.75zm-149.243-74.25c0-20.042 7.8-38.875 21.97-53.037 10.554-10.561 23.711-17.584 38.03-20.473v88.51h88.51c-2.89 14.319-9.914 27.477-20.48 38.037-14.155 14.163-32.988 21.963-53.03 21.963-41.355 0-75-33.645-75-75z"/></g></g></svg>