<svg id="Layer_1" enable-background="new 0 0 479.914 479.914" height="512" viewBox="0 0 479.914 479.914" width="512" xmlns="http://www.w3.org/2000/svg"><g><path d="m312.047 263.039c-7.062 0-10.712-8.602-5.657-13.657 36.735-36.736 36.739-96.196 0-132.937-36.651-36.65-96.285-36.65-132.937 0-24.783 24.784-33.704 60.989-23.281 94.487 1.313 4.219-1.043 8.703-5.262 10.016-4.221 1.313-8.703-1.043-10.016-5.262-12.195-39.192-1.756-81.554 27.245-110.554 42.889-42.89 112.675-42.89 155.563 0 42.988 42.988 42.994 112.57 0 155.563-1.56 1.563-3.608 2.344-5.655 2.344z"/><path d="m167.797 263.039c-2.048 0-4.096-.781-5.658-2.344-1.555-1.555-3.078-3.171-4.528-4.804-2.934-3.303-2.634-8.36.67-11.294 3.303-2.934 8.359-2.634 11.294.67 1.241 1.398 2.547 2.783 3.879 4.116 5.054 5.055 1.405 13.656-5.657 13.656z"/><path d="m363.666 314.658c-7.062 0-10.712-8.602-5.657-13.657 1.521-1.521 3.03-3.088 4.486-4.661 3.003-3.241 8.064-3.434 11.306-.431 3.241 3.003 3.434 8.064.431 11.306-1.594 1.72-3.246 3.436-4.909 5.099-1.563 1.562-3.61 2.344-5.657 2.344z"/><path d="m116.178 314.658c-2.047 0-4.095-.781-5.657-2.343-71.352-71.352-71.352-187.449 0-258.801 71.352-71.352 187.449-71.352 258.801 0 60.173 60.173 68.894 150.469 30.055 219.285-2.171 3.847-7.052 5.207-10.899 3.035-3.848-2.171-5.207-7.051-3.035-10.899 36.678-64.988 25.396-147.275-27.435-200.107-65.113-65.113-171.061-65.113-236.174 0s-65.113 171.061 0 236.174c5.056 5.053 1.407 13.656-5.656 13.656z"/><path d="m351.65 463.914h-4.578c-31.735-69.858-56.219-142.476-73.463-217.876-1.038-4.539-5.885-7.456-10.849-5.484-3.607 1.433-5.603 5.314-4.738 9.097.192.841.386 1.682.58 2.522-7.48 6.45-27.9 22.98-46.85 38.18 3.607-13.514 6.966-27.095 10.077-40.728.812-3.561-.887-7.526-4.896-9.132-4.528-1.813-9.613.793-10.697 5.549-17.647 77.422-42.929 150.724-73.463 217.871h-4.578c-4.262 0-7.982 3.218-8.255 7.471-.299 4.66 3.388 8.529 7.983 8.529h37.728c4.262 0 7.982-3.218 8.255-7.471.299-4.66-3.388-8.529-7.983-8.529h-15.6c3.26-7.3 6.45-14.63 9.55-22l138.22-55.92c9.51 26.35 20 52.34 31.43 77.92h-15.328c-4.262 0-7.982 3.218-8.255 7.471-.299 4.66 3.388 8.529 7.983 8.529h38c4.595 0 8.282-3.869 7.983-8.529-.274-4.252-3.994-7.47-8.256-7.47zm-183.278-42.69c12.71-31.84 24-64.25 33.83-97.09l82.76 49.91zm43.11-110.18c6.78-5.42 50.96-41.2 51.27-41.46 7.29 29.55 15.75 58.8 25.36 87.68z"/><circle cx="239.922" cy="182.914" r="46"/></g></svg>