<?xml version="1.0" encoding="iso-8859-1"?>
<!-- Generator: Adobe Illustrator 19.0.0, SVG Export Plug-In . SVG Version: 6.00 Build 0)  -->
<svg version="1.1" id="Capa_1" xmlns="http://www.w3.org/2000/svg" xmlns:xlink="http://www.w3.org/1999/xlink" x="0px" y="0px"
	 viewBox="0 0 512.127 512.127" style="enable-background:new 0 0 512.127 512.127;" xml:space="preserve">
<g>
	<g>
		<g>
			<path d="M464.656,107.663c-6.617-9.256-13.832-18.07-21.6-26.384l-23.36,21.888c6.806,7.271,13.123,14.984,18.912,23.088
				L464.656,107.663z"/>
			<path d="M418.176,57.999c-8.785-7.2-18.031-13.816-27.68-19.808l-16.832,27.2c8.475,5.239,16.594,11.033,24.304,17.344
				L418.176,57.999z"/>
			<path d="M482.56,136.671l-28.288,14.976c57.72,109.421,15.809,244.916-93.612,302.636
				c-109.421,57.72-244.916,15.809-302.636-93.612S42.214,115.755,151.635,58.034c32.2-16.986,68.055-25.867,104.46-25.876
				c31.424-0.087,62.509,6.495,91.2,19.312l13.056-29.216C231.222-35.324,79.866,22.679,22.286,151.808
				C-35.292,280.937,22.71,432.294,151.84,489.873c129.129,57.579,280.486-0.424,338.065-129.553
				c14.617-32.781,22.178-68.269,22.191-104.161C512.085,214.524,501.948,173.516,482.56,136.671z"/>
			<path d="M401.552,220.111c0.013,7.076-1.631,14.057-4.8,20.384l-65.456,119.232l-51.968-151.568h24.768v-32h-96v32h37.408
				l14.864,43.344l-58.832,110.88l-52.864-154.224h27.424v-32h-96v32h34.752l65.824,192h37.024l56.864-107.2l36.8,107.2h34.224
				l76.8-139.52l2.912-5.824c19.215-38.367,3.689-85.048-34.678-104.263c-5.093-2.551-10.451-4.534-15.978-5.913l-7.76,31.04
				C387.272,180.766,401.574,199.094,401.552,220.111z"/>
		</g>
	</g>
</g>
<g>
</g>
<g>
</g>
<g>
</g>
<g>
</g>
<g>
</g>
<g>
</g>
<g>
</g>
<g>
</g>
<g>
</g>
<g>
</g>
<g>
</g>
<g>
</g>
<g>
</g>
<g>
</g>
<g>
</g>
</svg>
