<svg id="Layer_1" enable-background="new 0 0 512 512" height="512" viewBox="0 0 512 512" width="512" xmlns="http://www.w3.org/2000/svg"><g><path d="m499.711 351.571-56.434-36.942-10.252-184.627c-1.061-19.067-16.85-34.002-35.945-34.002h-90.16c-19.095 0-34.884 14.935-35.945 34.002l-9.472 170.373-61.595-40.321c-.175-.115-.352-.226-.532-.333-8.018-4.811-18.051-4.936-26.187-.33s-13.189 13.276-13.189 22.625v56.652l-120.092-78.614c-.175-.115-.352-.226-.532-.333-8.018-4.811-18.052-4.936-26.187-.33s-13.189 13.276-13.189 22.625v213.984c0 8.836 7.164 16 16 16h160 160 160c8.836 0 16-7.164 16-16v-122.338c0-8.95-4.699-17.378-12.289-22.091zm-196.786-219.792c.118-2.119 1.873-3.779 3.995-3.779h90.16c2.122 0 3.876 1.66 3.994 3.777l8.944 161.079-50.11-32.803c-.175-.115-.352-.226-.532-.333-8.018-4.811-18.051-4.936-26.187-.33s-13.189 13.277-13.189 22.626v56.652l-27.572-18.049zm-270.925 161.345 128 83.791v103.085h-128zm160 80.538v-80.539l128 83.791v103.086h-128zm288 106.338h-128v-106.338-80.539l128 83.791z"/><path d="m160 152h-112c-26.467 0-48-21.533-48-48s21.533-48 48-48h8v-8c0-26.467 21.533-48 48-48s48 21.533 48 48v8h8c26.467 0 48 21.533 48 48s-21.533 48-48 48zm-112-64c-8.822 0-16 7.178-16 16s7.178 16 16 16h112c8.822 0 16-7.178 16-16s-7.178-16-16-16h-24c-8.836 0-16-7.164-16-16v-24c0-8.822-7.178-16-16-16s-16 7.178-16 16v24c0 8.836-7.164 16-16 16z"/></g></svg>