<svg id="Layer_1" enable-background="new 0 0 512 512" height="512" viewBox="0 0 512 512" width="512" xmlns="http://www.w3.org/2000/svg"><path d="m512 130.9h-41.993l-29.522-86.076h-112.976v-44.824h-327.509v291.8h58.906c10.198 20.94 31.695 35.407 56.511 35.407s46.312-14.467 56.511-35.407h153.516c10.198 20.94 31.695 35.407 56.511 35.407s46.312-14.467 56.511-35.407h73.534zm-92.941-56.076 19.233 56.076h-110.783v-56.076zm-303.642 222.383c-18.096 0-32.817-14.722-32.817-32.817s14.722-32.817 32.817-32.817 32.817 14.722 32.817 32.817-14.722 32.817-32.817 32.817zm0-95.635c-33.769 0-61.387 26.787-62.752 60.228h-22.665v-231.8h267.509v231.8h-119.341c-1.364-33.44-28.982-60.228-62.751-60.228zm266.537 95.635c-18.096 0-32.817-14.722-32.817-32.817s14.722-32.817 32.817-32.817 32.817 14.722 32.817 32.817-14.721 32.817-32.817 32.817zm100.046-35.407h-37.294c-1.365-33.44-28.983-60.228-62.752-60.228-23.256 0-43.586 12.713-54.445 31.546v-72.218h154.491z"/></svg>