<svg id="bold" enable-background="new 0 0 24 24" height="512" viewBox="0 0 24 24" width="512" xmlns="http://www.w3.org/2000/svg"><path d="m17.5 11c-3.584 0-6.5 2.916-6.5 6.5s2.916 6.5 6.5 6.5 6.5-2.916 6.5-6.5-2.916-6.5-6.5-6.5zm2.808 8.252-2.25 2.5c-.143.158-.345.248-.558.248s-.415-.09-.558-.248l-2.25-2.5c-.433-.482-.09-1.252.558-1.252h1.25v-4c0-.552.447-1 1-1s1 .448 1 1v4h1.25c.648 0 .991.77.558 1.252z"/><path d="m10 0 10 4-10 4-10-4z"/><path d="m9 9.754-9-3.6v9.846c0 .21.13.396.327.469l8.673 3.195z"/><path d="m17.5 9c.87 0 1.709.133 2.5.376v-3.222l-9 3.6v2.28c1.56-1.852 3.894-3.034 6.5-3.034z"/></svg>